<svg width="410" height="473" viewBox="0 0 410 473" fill="none" xmlns="http://www.w3.org/2000/svg">
<ellipse cx="192.5" cy="454.5" rx="192.5" ry="18.5" fill="#F9F9F9"/>
<path d="M262.551 461.5V455C250.551 455 160.551 455 163.051 458C165.051 460.4 230.218 461.333 262.551 461.5Z" fill="black"/>
<path d="M263 447.5V444C256 444 206 444 206 445.5C206 446.7 244 447.333 263 447.5Z" fill="black"/>
<path d="M275 124C276 122.5 276.5 119.833 276.5 118.5C284.5 116.5 295 108.167 299 103.5H302.5V124H275Z" fill="#E3CFB9"/>
<path d="M260.346 89H292.395H293.481V99.9981C293.481 103.598 297.827 103.831 300 103.498C285.659 118.695 267.951 122.161 260.889 121.994V103.498C257.847 104.297 256.362 102.831 256 101.998L260.346 93.4992V89Z" fill="#FFE6CA"/>
<path d="M302.513 124H275.013C274.014 126.5 270.5 129.5 268.5 130H302.513V124Z" fill="#FFE6CA"/>
<path d="M246.034 89.5H292.534C293.333 92.3 292.867 96.6667 292.534 98.5C291.733 101.7 293.868 103.5 295.035 104L304.035 103.5C308.035 99.5 308.702 90.1667 308.535 86C307.735 82.8 302.202 82.3333 299.535 82.5C295.135 83.3 294.368 87.8333 294.535 90C295.735 97.2 295.035 100.333 294.535 101C293.735 101.8 293.535 101.333 293.535 101C294.336 97.8 293.869 92.3333 293.535 90C293.135 84 296.035 82.1667 297.535 82H255.535C253.135 84.4 250.201 85.3333 249.034 85.5C246.234 85.5 245.867 88.1667 246.034 89.5Z" fill="#090708"/>
<path d="M256 80H307C301.846 66.8 290.358 63 281.232 63C264.589 63 257.074 75 256 80Z" fill="#090708"/>
<path d="M307 80.5L256.075 80C254.708 80 254.709 81.9938 255.717 81.9938H297.119C292.798 83.9877 292.798 88.4738 293.338 90.4676C294.202 93.259 293.86 99.1739 293.5 101.5C296 102 295.607 94.9538 294.959 91.963C293.662 85.9815 296.579 83.4892 298.199 82.9908C304 81.5 307 84 308.5 85.5L307 80.5Z" fill="#F9F9F9"/>
<path d="M302.513 130V135H279.512V166C296.312 166 323.512 162.667 335.012 161L343.512 137H354.012C350.412 149.4 353.512 161.5 355.512 166L324.512 173L310.512 231C309.712 237.4 304.179 239 301.512 239H229.512L245.512 167C240.312 165.8 234.667 161.5 233.501 160C221.901 142.8 235.012 135.167 242.512 133H266.013L268.513 130H302.513Z" fill="#F9F9F9"/>
<path d="M234 160C240.167 165.667 256.2 176.2 279 167V135" stroke="black"/>
<path d="M270.5 135V165" stroke="black"/>
<path d="M253.5 169L239 238.5H300.5C303.833 238.5 309 238 311 230.5L322.5 182.5" stroke="black"/>
<path d="M325 161V173L355.5 165.5" stroke="black"/>
<path d="M363.168 119C362.768 132.6 360.489 136.5 359.489 137H356.989H353.992C349.999 151 353.5 160.5 354.994 165L383.668 156.5C386.068 142.9 385.001 125.833 384.168 119H363.168Z" fill="#FFE6CA"/>
<path d="M354 161.5C357 160.5 365.3 153.4 366.5 151" stroke="black"/>
<path d="M279 166V135H315.5C320.7 121.8 327.667 112.667 330.5 110C330.9 111.6 343.333 117.333 349.5 120L335.5 161C325.9 163.4 294 166 279 166Z" fill="#FFE7CA"/>
<path d="M279 142H290" stroke="black"/>
<path d="M345 118C345 119.833 344.6 124 343 126" stroke="black"/>
<path d="M409.062 94.9998L339.062 64.4998C338.263 68.8998 336.729 71.0749 336.062 71.4083L405.562 101.408C411.162 101.008 410.229 96.8331 409.062 94.9998Z" fill="#0D4194"/>
<path d="M215.052 0.278809L330.052 52.7788C338.853 56.7967 340.052 63.4524 339.551 66.278C337.951 74.678 328.884 74.1113 324.551 72.778L205.552 23.778C200.352 21.378 200.719 17.1113 201.552 15.278L207.052 3.77881C209.062 -0.0917969 212.885 -0.387857 215.052 0.278809Z" fill="#090708"/>
<path d="M271.062 25.9082L213.062 26.9082L221.562 30.4082L280.062 29.9082L271.062 25.9082Z" fill="#0D4194"/>
<path d="M201.322 15.9082H248.92L267.919 24.4082L208.068 24.9082C200.562 22.4082 200.563 17.9082 201.322 15.9082Z" fill="#0D4194"/>
<path d="M205.117 14.9082C204.784 16.7415 205.817 21.0082 212.617 23.4082L326.117 70.4082C330.062 71.9082 337.817 70.7082 338.617 65.9082" stroke="#F9F9F9"/>
<path d="M206.062 5.9082L327.062 57.4082M327.062 57.4082L330.562 65.9082M327.062 57.4082L334.062 56.4082" stroke="#F9F9F9" stroke-width="0.5"/>
<path d="M361.275 96.8252L363.275 95.8252L365.273 98.8242C363.273 98.8242 362.44 100.491 362.273 101.324L361.773 115.824C361.373 119.824 362.273 120.824 362.773 120.824H383.273L385.273 119.325L384.773 107.824H366.773C362.773 105.824 365.107 103.324 366.773 102.324H384.273V100.324L382.273 98.8242L385.273 95.8252V92.3252L379.273 89.8242C378.873 87.0242 381.107 84.3242 382.273 83.3242L385.273 85.3242V80.8242L370.773 73.8242L368.273 74.8242L355.273 69.3252C351.673 66.9252 348.773 68.3252 347.773 69.3252L340.273 79.8252C339.473 83.4252 341.607 86.6585 342.773 87.8252L357.273 94.3252C360.072 99.5252 356.44 100.158 354.273 99.8252L338.773 92.3252C334.773 98.3252 331.441 104.825 330.275 107.325C329.475 110.125 330.608 111.825 331.275 112.325L348.275 121.325C351.075 122.125 353.108 120.325 353.775 119.325L361.275 96.8252Z" fill="#090708"/>
<path d="M357 94L340 86L337 91.5L354.5 100C359.5 100.5 359 95.5 357 94Z" fill="#0D4194"/>
<path d="M366.726 102.311H386.819L386.821 107.842H366.728C362.5 105.5 365.226 103.144 366.726 102.311Z" fill="#0D4194"/>
<path d="M54 458.5C56.8 433.3 74.1667 416.333 82 411L100.5 427.5L94 437.5C98.8 446.7 98.3333 455.333 97.5 458.5H54Z" fill="#090708"/>
<path d="M92.5737 456.5H54.2461C54.4297 453.5 55.2713 449.667 56.1046 448H91.0737C97.4737 450.4 94.7404 454.667 92.5737 456.5Z" fill="#0D4194"/>
<path d="M96.5 451H58" stroke="#F9F9F9"/>
<path d="M61 451.5C61.1667 449.667 61.7 445.9 62.5 445.5C63.5 448 67.1 450.9 73.5 442.5C75.6667 438.333 78.4 429.6 72 428C72.5 426.5 75.3 421.8 82.5 415" stroke="#F9F9F9"/>
<path d="M148 323.15L80 409.15L103 429.649L176.5 353.149C184.1 343.149 183 333.983 181.5 330.65C172 310.499 154 316.5 148 323.15Z" fill="#0D4194"/>
<path d="M90 418.5L172 321" stroke="#F9F9F9"/>
<path d="M139.5 333.5L170.5 359" stroke="#F9F9F9"/>
<path d="M98.5 425.5L166.5 355.5" stroke="#F9F9F9"/>
<path d="M377 335.888L311.5 437.388C309.5 434.588 305.333 435.222 303.5 435.889C302.3 433.489 298.667 430.556 297 429.389C303.4 418.989 306.333 411.722 307 409.389C309 402.989 310.167 394.056 310.5 390.389C310.5 383.989 312.5 378.056 313.5 375.889C315.1 369.089 326.5 354.056 332 347.389C331.6 346.189 332.5 345.889 333 345.889C333 345.089 334.667 342.222 335.5 340.888C348.7 322.088 368.5 328.5 377 335.888Z" fill="#0D4194"/>
<path d="M304 433.5L368 333" stroke="#F9F9F9"/>
<path d="M360.5 361.5L332 346" stroke="#F9F9F9"/>
<path d="M340.5 350.5C337.167 352.833 328.1 364.1 318.5 390.5C315.667 399.5 308 420.3 300 431.5" stroke="#F9F9F9"/>
<path d="M229 249L232.5 239L304 238.5V242.5V244V248.5L365 327L363.5 329.5C345.5 325.9 336 339 333.5 346C331.5 345.6 332 346.833 332.5 347.5L329.5 352C326.3 353.6 322.833 359.333 321.5 362L314.5 359.5C315.3 355.9 320.833 350.667 323.5 348.5L327.5 341.5C317.5 334.7 283.333 305 267.5 291H260C248 303.4 201.333 334.5 179.5 348.5C183.9 338.1 181.333 329.833 179.5 327C170.7 314.2 157.5 317 152 320L228 250.5H302.5C303.3 250.1 302.833 249.333 302.5 249H229Z" fill="#090708"/>
<path d="M158 372L138.5 392.5C152 384 158.667 376.667 160.5 374.5L158 372Z" fill="#0C0809"/>
<path d="M164 366L166 368C169.6 364.4 173.833 357.167 175.5 354L164 366Z" fill="#0A0809"/>
<path d="M158 372L164 366L167.5 369.111L161.5 375.611L158 372Z" fill="#FEFEFE"/>
<path d="M182 340.5L249 294" stroke="#F9F9F9"/>
<path d="M312.344 358.5L321.5 362C319.9 364 317.833 367 317 368.5L310 366.001L312.344 358.5Z" fill="#F9F9F9"/>
<path d="M310.47 366.15L317 368.5C312.5 376 310.667 386.167 310.5 390.5C309.7 400.9 307.667 408.5 306.5 411L298 407.501C302.4 401.901 308.136 377.65 310.47 366.15Z" fill="#0B090A"/>
<path d="M296.5 406.676L306.501 411.004C305.501 413.504 303.999 417.996 303.5 418.5L293.5 415.176L296.5 406.676Z" fill="#F9F9F9"/>
<path d="M270 291H292L330.5 327.5C332.167 329.5 335.8 334.6 337 339" stroke="#F9F9F9"/>
<path d="M258 243C258 241.343 259.343 240 261 240H301V246H261C259.343 246 258 244.657 258 243Z" fill="#0D4194"/>
<path d="M260 241H304" stroke="#F9F9F9"/>
<path d="M244.5 251C228.5 263.833 194.8 292.7 188 305.5C186.5 306 181.8 309.3 175 318.5" stroke="#0D4194"/>
<path d="M304 252C305 252.5 308.4 256 314 266C316.5 268.667 322.2 275 325 279L341 300.5L343.929 303.429C343.974 303.474 343.995 303.537 343.986 303.599L343.529 306.796C343.513 306.907 343.593 307.01 343.705 307.023L347.773 307.475C347.893 307.488 347.974 307.605 347.944 307.722L347.051 311.297C347.023 311.407 347.094 311.519 347.206 311.541L349.339 311.968C349.433 311.987 349.5 312.069 349.5 312.164V314.897C349.5 314.962 349.53 315.022 349.583 315.059C350.783 315.914 353.218 317.609 354 318C354.8 318.4 357.167 322 358 323.5" stroke="#0D4194"/>
<path d="M302.5 249H229L227.5 251H302.5C303.7 250.2 303 249.333 302.5 249Z" fill="#F9F9F9"/>
<path d="M287.68 428.5L295.498 416C295.498 415.5 301.83 417.666 303.498 418.5C302.698 420.5 299.182 426.833 297.682 429.5C300.082 430.7 303.015 434 304.182 435.5L306.498 435L309.682 435.5C318.482 441.1 322.682 445.5 323.682 447C336.082 447.4 338.182 455.833 337.682 460H282.682L282.182 458.5H331.182C335.182 455.7 332.848 452.666 331.182 451.5L281.215 451.5C279 436.5 285.013 429.833 287.68 428.5Z" fill="#0B090A"/>
<path d="M331.499 451H281.137L282.176 458.5H331.499C335.099 455.7 332.999 452 331.499 451Z" fill="#0D4194"/>
<path d="M301 440.5C301 444.642 297.418 448 293 448C288.582 448 285 444.642 285 440.5C285 436.358 288.582 433 293 433C297.418 433 301 436.358 301 440.5ZM286.592 440.5C286.592 443.818 289.461 446.508 293 446.508C296.539 446.508 299.408 443.818 299.408 440.5C299.408 437.182 296.539 434.492 293 434.492C289.461 434.492 286.592 437.182 286.592 440.5Z" fill="#F9F9F9"/>
<path d="M284 455H337" stroke="#F9F9F9"/>
<path d="M292.914 98C292.511 98.7437 291.488 99.6792 289.657 100.624M257.629 105.043C257.093 105.031 256.55 105.017 256 105L257.629 105.043ZM257.629 105.043C275.379 105.43 285.062 102.997 289.657 100.624M289.657 105.966C285.714 108.408 280.429 110.5 277.714 110.5H256H257.629V115M289.657 105.966C291.477 104.839 293.04 103.516 294 102L289.657 105.966ZM289.657 105.966V100.624M289.657 105.966C289.838 108.811 287.703 114.6 277.714 115H257.629M256 115H257.629" stroke="black"/>
<path d="M257.629 110.5V105" stroke="black"/>
</svg>
